<svg xmlns="http://www.w3.org/2000/svg" viewBox="0 0 100 100"><path d="M50 90c-22.1 0-40-17.9-40-40s17.9-40 40-40 40 17.9 40 40-17.9 40-40 40zm0-73.3c-18.4 0-33.3 14.9-33.3 33.3S31.6 83.3 50 83.3 83.3 68.4 83.3 50 68.4 16.7 50 16.7zM36.7 43.3a6.7 6.7 0 0 1 0-13.4 6.7 6.7 0 0 1 6.7 6.7c-.1 3.8-3 6.7-6.7 6.7zm13.3 30c-8.8 0-16.5-5.6-19.1-14-.6-1.8.4-3.6 2.2-4.2 1.7-.6 3.6.4 4.2 2.2 1.7 5.6 6.9 9.3 12.7 9.3s11-3.8 12.7-9.3c.6-1.8 2.4-2.8 4.2-2.2 1.7.6 2.7 2.4 2.1 4.2-2.5 8.4-10.2 14-19 14zm13.3-30a6.7 6.7 0 0 1 0-13.4 6.7 6.7 0 0 1 6.7 6.7c0 3.8-3 6.7-6.7 6.7z"/></svg>