<svg xmlns="http://www.w3.org/2000/svg" viewBox="0 0 100 100"><path d="M87.1 84.3c0 3.1-2.6 5.7-5.7 5.7H18.6c-3.1 0-5.7-2.6-5.7-5.7V27.1c0-3.1 2.6-5.7 5.7-5.7h5.7v-4.3a7.13 7.13 0 0 1 7.1-7.1h2.9a7.13 7.13 0 0 1 7.1 7.1v4.3h17.1v-4.3a7.13 7.13 0 0 1 7.1-7.1h2.9a7.13 7.13 0 0 1 7.1 7.1v4.3h5.7c3.1 0 5.7 2.6 5.7 5.7v57.2zM31.4 51.4V38.6H18.6v12.9h12.8zm0 17.2V54.3H18.6v14.3h12.8zm0 15.7V71.4H18.6v12.9h12.8zm4.3-67.2c0-.8-.7-1.4-1.4-1.4h-2.9c-.8 0-1.4.7-1.4 1.4V30c0 .8.7 1.4 1.4 1.4h2.9c.8 0 1.4-.7 1.4-1.4V17.1zm12.9 34.3V38.6H34.3v12.9h14.3zm0 17.2V54.3H34.3v14.3h14.3zm0 15.7V71.4H34.3v12.9h14.3zm17.1-32.9V38.6H51.4v12.9h14.3zm0 17.2V54.3H51.4v14.3h14.3zm0 15.7V71.4H51.4v12.9h14.3zM70 17.1c0-.8-.7-1.4-1.4-1.4h-2.9c-.8 0-1.4.7-1.4 1.4V30c0 .8.7 1.4 1.4 1.4h2.9c.8 0 1.4-.7 1.4-1.4V17.1zm11.4 34.3V38.6H68.6v12.9h12.8zm0 17.2V54.3H68.6v14.3h12.8zm0 15.7V71.4H68.6v12.9h12.8z"/></svg>