<svg xmlns="http://www.w3.org/2000/svg" viewBox="0 0 100 100"><path d="M50,15C25.1,15,5,35.1,5,60c0,8.3,2.2,16,6.1,22.6c0.9,1.5,2.5,2.4,4.3,2.4h69.2c1.7,0,3.4-0.9,4.3-2.4 C92.8,76,95,68.3,95,60C95,35.1,74.9,15,50,15z M50,25c2.3,0,4.2,1.6,4.7,3.7c-0.2,0.4-0.4,0.7-0.5,1l-1.4,4.3C52,34.6,51,35,50,35 c-2.8,0-5-2.2-5-5S47.2,25,50,25z M20,70c-2.8,0-5-2.2-5-5s2.2-5,5-5s5,2.2,5,5S22.8,70,20,70z M27.5,45c-2.8,0-5-2.2-5-5s2.2-5,5-5 s5,2.2,5,5S30.3,45,27.5,45z M66.1,33.7l-9.6,28.8C58.6,64.3,60,67,60,70c0,1.8-0.5,3.5-1.4,5H41.4c-0.9-1.5-1.4-3.2-1.4-5 c0-5.3,4.1-9.6,9.4-9.9l9.6-28.8c0.7-2,2.8-3,4.7-2.4C65.7,29.6,66.7,31.7,66.1,33.7L66.1,33.7z M68.3,42.6l2.4-7.3 c0.5-0.2,1.1-0.3,1.7-0.3c2.8,0,5,2.2,5,5s-2.2,5-5,5C70.7,45,69.2,44,68.3,42.6L68.3,42.6z M80,70c-2.8,0-5-2.2-5-5s2.2-5,5-5 s5,2.2,5,5S82.8,70,80,70z"/></svg>