<svg xmlns="http://www.w3.org/2000/svg" viewBox="0 0 100 100"><path d="M89 55.8c0 .8-.6 1.7-1.4 1.8L78.2 59c-.6 1.6-1.2 3.1-2 4.6 1.7 2.5 3.6 4.7 5.4 7 .3.4.5.8.5 1.3s-.2.8-.5 1.2c-1.2 1.6-8.1 9.1-9.8 9.1-.5 0-.9-.2-1.3-.5l-7-5.5c-1.5.8-3 1.4-4.6 1.9-.4 3.1-.7 6.4-1.5 9.4a1.83 1.83 0 0 1-1.8 1.4H44.4c-.9 0-1.7-.7-1.8-1.5l-1.4-9.3c-1.6-.5-3.1-1.1-4.6-1.9l-7.2 5.4c-.4.3-.8.5-1.3.5s-.9-.2-1.3-.6c-2.7-2.4-6.2-5.6-8.4-8.5a1.92 1.92 0 0 1-.4-1.2c0-.5.2-.8.4-1.2 1.7-2.3 3.6-4.6 5.3-7a24.13 24.13 0 0 1-2.1-5l-9.3-1.4c-.9-.2-1.5-1-1.5-1.8V44.3c0-.8.6-1.7 1.4-1.8l9.4-1.4c.5-1.6 1.2-3.1 2-4.7-1.7-2.4-3.6-4.7-5.4-7-.3-.4-.5-.8-.5-1.2s.2-.8.5-1.2c1.2-1.7 8.1-9.1 9.8-9.1.5 0 .9.2 1.3.5l7 5.4c1.5-.8 3-1.4 4.6-1.9.4-3.1.7-6.4 1.5-9.4a1.83 1.83 0 0 1 1.8-1.4h11.3c.9 0 1.7.7 1.8 1.5l1.4 9.3c1.6.5 3.1 1.1 4.6 1.9l7.2-5.4c.3-.3.8-.5 1.2-.5s.9.2 1.3.5c2.7 2.5 6.2 5.6 8.4 8.6.3.3.4.7.4 1.1 0 .5-.2.8-.4 1.2-1.7 2.3-3.6 4.6-5.3 7a24.13 24.13 0 0 1 2.1 5l9.3 1.4c.9.2 1.5 1 1.5 1.8v11.3zM50 37c-7.2 0-13 5.8-13 13s5.8 13 13 13 13-5.8 13-13-5.8-13-13-13z"/></svg>