<svg xmlns="http://www.w3.org/2000/svg" viewBox="0 0 100 100"><path d="M85.6 68.2c0 1.7-.9 3.2-2.5 3.9l-15.5 7.7c-.6.3-1.3.5-2 .5s-1.3-.1-2-.5l-15.5-7.7c-.1 0-.2-.1-.2-.1-.1.1-.1.1-.2.1l-15.5 7.7c-.6.3-1.3.5-2 .5s-1.3-.1-2-.5l-15.5-7.7c-1.5-.7-2.5-2.3-2.5-3.9V53.8c0-1.8 1.1-3.3 2.7-4.1l15-6.4V29.5c0-1.8 1.1-3.3 2.7-4.1l15.5-6.6c.6-.2 1.1-.3 1.7-.3s1.2.1 1.7.3L65 25.4c1.6.7 2.7 2.3 2.7 4.1v13.8l15 6.4c1.7.7 2.7 2.3 2.7 4.1v14.4zm-41.3-15l-14-6-14 6 14 6 14-6zm1.5 15V57.4L32.6 63v11.8l13.2-6.6zm17.5-38.8L48 22.9l-15.2 6.5L48 35.9l15.3-6.5zm.2 13.9v-9.2l-13.3 5.7V49l13.3-5.7zm16.2 9.9l-14-6-14 6 14 6 14-6zm1.5 15V57.4L67.9 63v11.8l13.3-6.6z" enable-background="new"/></svg>