<svg xmlns="http://www.w3.org/2000/svg" viewBox="0 0 100 100"><path d="M16.2 57.7c-3.4 0-6.2-2.7-6.2-6.2 0-3.4 2.7-6.2 6.2-6.2s6.2 2.7 6.2 6.2c-.1 3.5-2.8 6.2-6.2 6.2zm9.9-22.4c-4.2 0-7.7-3.5-7.7-7.7s3.5-7.7 7.7-7.7 7.7 3.5 7.7 7.7-3.5 7.7-7.7 7.7zm0 46.3c-3.4 0-6.2-2.8-6.2-6.2s2.8-6.2 6.2-6.2 6.2 2.7 6.2 6.2c-.1 3.4-2.8 6.2-6.2 6.2zM50 26.9c-5.1 0-9.2-4.1-9.2-9.2s4.1-9.2 9.2-9.2 9.2 4.1 9.2 9.2-4.1 9.2-9.2 9.2zm0 64.6c-3.4 0-6.2-2.7-6.2-6.2s2.7-6.2 6.2-6.2 6.2 2.7 6.2 6.2-2.8 6.2-6.2 6.2zm23.9-53.1c-6 0-10.8-4.8-10.8-10.8 0-5.9 4.8-10.8 10.8-10.8 5.9 0 10.8 4.9 10.8 10.8 0 6-4.8 10.8-10.8 10.8zm0 43.2c-3.4 0-6.2-2.8-6.2-6.2s2.7-6.2 6.2-6.2c3.4 0 6.2 2.7 6.2 6.2 0 3.4-2.8 6.2-6.2 6.2zm9.9-23.9c-3.4 0-6.2-2.7-6.2-6.2 0-3.4 2.7-6.2 6.2-6.2S90 48 90 51.5s-2.7 6.2-6.2 6.2z"/></svg>