<?xml version="1.0" standalone="no"?>
<!DOCTYPE svg PUBLIC "-//W3C//DTD SVG 20010904//EN"
 "http://www.w3.org/TR/2001/REC-SVG-20010904/DTD/svg10.dtd">
<svg version="1.0" xmlns="http://www.w3.org/2000/svg"
 width="953.000000pt" height="953.000000pt" viewBox="0 0 953.000000 953.000000"
 preserveAspectRatio="xMidYMid meet">
<metadata>
Created by potrace 1.11, written by Peter Selinger 2001-2013
</metadata>
<g transform="translate(0.000000,953.000000) scale(0.100000,-0.100000)"
fill="#000000" stroke="none">
<path d="M4618 8654 c-46 -11 -236 -88 -495 -200 -78 -33 -103 -44 -198 -84
-55 -23 -118 -50 -140 -60 -22 -10 -128 -55 -235 -100 -107 -45 -213 -90 -235
-100 -22 -10 -85 -37 -140 -60 -55 -23 -118 -50 -140 -59 -22 -10 -128 -55
-235 -101 -230 -96 -299 -133 -368 -195 -79 -71 -151 -191 -179 -296 -3 -13
-7 -433 -9 -934 -1 -500 -3 -915 -3 -920 -1 -6 -13 -15 -28 -21 -51 -21 -768
-325 -798 -339 -16 -7 -201 -86 -410 -174 -209 -89 -389 -166 -400 -171 -11
-5 -81 -36 -156 -68 -75 -33 -156 -73 -182 -90 -126 -87 -214 -212 -247 -351
-18 -76 -18 -1974 0 -2053 21 -93 78 -194 150 -268 l66 -69 1059 -526 c693
-345 1078 -531 1116 -540 74 -17 196 -12 274 10 33 10 238 107 455 215 1076
537 1616 803 1630 802 8 0 474 -228 1035 -507 640 -318 1040 -511 1076 -519
64 -15 180 -14 254 3 60 14 48 9 1235 599 806 401 952 477 992 516 96 92 153
210 164 334 4 48 3 62 -8 62 -11 0 -13 163 -13 941 0 709 -3 957 -12 1003 -27
131 -117 267 -226 339 -29 19 -165 83 -302 142 -138 58 -263 112 -280 119 -16
8 -181 78 -365 156 -184 78 -348 148 -365 156 -16 7 -84 36 -150 64 -66 28
-136 58 -155 66 -19 8 -111 48 -205 88 l-170 72 -5 929 c-5 891 -6 932 -25
985 -43 121 -126 231 -226 298 -25 17 -111 59 -190 93 -156 66 -169 72 -274
117 -38 16 -178 76 -310 132 -132 56 -253 108 -270 115 -16 8 -228 98 -470
200 -242 103 -456 194 -475 202 -55 24 -73 31 -110 43 -52 18 -235 20 -302 4z
m356 -625 c105 -45 340 -144 521 -221 182 -77 348 -148 370 -158 22 -10 110
-47 195 -83 144 -60 496 -209 600 -254 l45 -20 -31 -16 c-17 -9 -53 -24 -80
-35 -27 -11 -290 -122 -584 -247 -294 -125 -580 -247 -635 -270 -55 -23 -116
-49 -135 -58 -132 -60 -448 -190 -460 -189 -12 1 -419 171 -565 237 -16 7 -79
34 -140 60 -60 25 -126 53 -145 62 -57 25 -81 36 -370 158 -151 64 -299 128
-328 141 -29 13 -55 24 -57 24 -2 0 -28 11 -57 24 -30 14 -76 33 -103 44 -28
11 -72 30 -99 42 l-48 22 408 175 c225 96 625 267 889 380 512 219 546 233
585 251 14 6 27 11 29 11 2 1 90 -35 195 -80z m1763 -1908 c0 -313 -2 -573 -6
-578 -7 -10 -62 -37 -161 -77 -36 -15 -78 -33 -95 -41 -33 -14 -119 -52 -150
-65 -11 -4 -46 -20 -78 -34 -32 -14 -60 -26 -62 -26 -2 0 -28 -11 -57 -24 -29
-13 -93 -40 -143 -61 -49 -21 -108 -45 -130 -55 -22 -10 -152 -66 -290 -125
-137 -59 -270 -116 -295 -127 -25 -10 -54 -23 -65 -28 -11 -4 -46 -20 -78 -34
-32 -14 -60 -26 -62 -26 -3 0 -5 260 -5 578 l0 579 828 355 c455 196 832 357
838 357 8 1 11 -163 11 -568z m-3984 -1167 c111 -48 220 -94 242 -104 22 -10
200 -86 395 -170 195 -83 369 -158 385 -165 17 -7 107 -46 200 -86 94 -39 188
-80 210 -90 22 -10 58 -25 79 -34 23 -9 36 -19 30 -24 -5 -4 -45 -23 -89 -41
-44 -18 -98 -41 -120 -51 -22 -9 -101 -43 -175 -75 -74 -31 -160 -68 -190 -81
-57 -25 -84 -36 -122 -52 -29 -12 -100 -42 -162 -70 -27 -12 -70 -31 -96 -41
-26 -10 -69 -29 -96 -41 -63 -27 -65 -28 -349 -149 -132 -57 -263 -113 -292
-126 -55 -26 -56 -26 -146 14 -39 18 -141 62 -417 180 -58 24 -123 52 -145 62
-22 10 -148 64 -280 120 -132 56 -258 110 -280 120 -22 10 -154 66 -293 125
-139 60 -249 111 -245 115 4 3 49 24 98 45 50 21 108 46 130 56 22 9 166 71
320 137 154 66 298 127 320 137 511 220 872 374 878 374 4 1 99 -38 210 -85z
m5132 -284 c475 -203 868 -370 874 -370 15 0 14 -17 -1 -23 -7 -3 -402 -172
-877 -376 l-864 -371 -236 101 c-130 56 -249 107 -266 114 -16 8 -221 96 -455
195 -234 100 -443 189 -465 199 -22 10 -106 46 -188 81 -81 35 -144 67 -140
70 5 4 233 103 508 220 275 117 514 219 531 227 82 37 700 301 707 302 4 1
397 -165 872 -369z m-3384 -927 c1 -10 1 -1278 0 -1320 l-1 -32 -825 -412
c-454 -227 -828 -409 -832 -406 -5 5 -8 1361 -4 1460 1 10 13 22 29 27 15 6
36 15 47 20 20 9 289 123 825 350 146 62 279 118 295 125 17 8 106 46 200 85
93 39 188 80 210 90 44 21 55 24 56 13z m4470 0 c0 -11 0 -1269 0 -1315 l-1
-37 -227 -112 c-126 -62 -501 -248 -835 -414 -335 -167 -609 -300 -609 -296
-1 3 -2 338 -3 743 l-1 738 25 9 c20 6 268 111 520 217 443 189 1117 472 1123
473 4 1 7 -2 8 -6z"/>
</g>
</svg>
